<mxfile host="app.diagrams.net" modified="2024-05-28T06:31:46.846Z" agent="Mozilla/5.0 (Macintosh; Intel Mac OS X 10_15_7) AppleWebKit/537.36 (KHTML, like Gecko) Chrome/125.0.0.0 Safari/537.36 Edg/125.0.0.0" version="24.3.0" etag="RUB973OK3IMuflcQXgKk" type="github">
  <diagram name="第 1 页" id="q9NNsnDz6rha1iLLvGI-">
    <mxGraphModel>
      <root>
        <mxCell id="0" />
        <mxCell id="1" parent="0" />
      </root>
    </mxGraphModel>
  </diagram>
</mxfile>
